<?xml version="1.0" encoding="iso-8859-1"?>
<!-- Generator: Adobe Illustrator 19.0.0, SVG Export Plug-In . SVG Version: 6.00 Build 0)  -->
<svg version="1.1" id="Layer_1" xmlns="http://www.w3.org/2000/svg" xmlns:xlink="http://www.w3.org/1999/xlink" x="0px" y="0px"
	 viewBox="0 0 512 512" style="enable-background:new 0 0 512 512;" xml:space="preserve">
<polygon style="fill:#6396ED;" points="313.421,428.396 228.049,407.455 248.99,496.293 323.258,496.293 "/>
<polygon style="fill:#9DC1FF;" points="184.56,428.396 174.723,496.293 248.99,496.293 248.99,407.455 "/>
<path style="fill:#6396ED;" d="M482.601,95.457c0-11.952-9.689-21.641-21.641-21.641H248.99l-31.412,306.228l265.023-31.412V95.457z
	"/>
<path style="fill:#9DC1FF;" d="M37.02,73.817c-11.952,0-21.641,9.688-21.641,21.641v253.176l233.611,31.412V73.817H37.02z"/>
<path style="fill:#2E6BD6;" d="M248.99,348.633l-20.941,39.881l20.941,39.881h211.971c11.952,0,21.641-9.688,21.641-21.641v-58.122
	L248.99,348.633L248.99,348.633z"/>
<path style="fill:#6396ED;" d="M15.38,348.633v58.122c0,11.952,9.688,21.641,21.641,21.641h211.97v-79.763H15.38z"/>
<rect x="228.667" y="372.804" style="fill:#003DA6;" width="40.647" height="31.412"/>
<g>
	<rect x="82.267" y="143.865" style="fill:#2E6BD6;" width="134.338" height="31.412"/>
	<rect x="82.267" y="248.571" style="fill:#2E6BD6;" width="75.629" height="31.412"/>
</g>
<polygon style="fill:#003DA6;" points="364.08,480.587 248.99,480.587 228.049,496.293 248.99,511.999 364.08,511.999 "/>
<rect x="133.897" y="480.589" style="fill:#2E6BD6;" width="115.093" height="31.412"/>
<g>
	<polygon style="fill:#003DA6;" points="415.71,248.571 248.99,248.571 238.52,264.277 248.99,279.983 415.71,279.983 	"/>
	<polygon style="fill:#003DA6;" points="300.401,196.218 248.99,196.218 238.52,211.924 248.99,227.63 300.401,227.63 	"/>
</g>
<g>
	<rect x="189.308" y="248.571" style="fill:#2E6BD6;" width="59.682" height="31.412"/>
	<rect x="82.267" y="196.218" style="fill:#2E6BD6;" width="166.723" height="31.412"/>
</g>
<path style="fill:#FF8600;" d="M490.64,5.98l-99.983,87.731L284.695,211.925h28.876L490.64,34.856
	C498.614,26.881,498.614,13.953,490.64,5.98L490.64,5.98z"/>
<path style="fill:#FFAC00;" d="M490.64,5.98c-7.974-7.973-20.902-7.973-28.876,0L284.695,183.049v28.876L490.64,5.98L490.64,5.98z"
	/>
<polygon style="fill:#E3D6D8;" points="443.958,52.662 458.395,67.1 480.607,44.889 466.169,30.451 447.844,34.337 "/>
<rect x="432.146" y="24.136" transform="matrix(-0.7071 0.7071 -0.7071 -0.7071 788.8154 -258.0483)" style="fill:#F5F2F3;" width="31.411" height="20.417"/>
<g>
</g>
<g>
</g>
<g>
</g>
<g>
</g>
<g>
</g>
<g>
</g>
<g>
</g>
<g>
</g>
<g>
</g>
<g>
</g>
<g>
</g>
<g>
</g>
<g>
</g>
<g>
</g>
<g>
</g>
</svg>
